<svg id="Layer_1" data-name="Layer 1" xmlns="http://www.w3.org/2000/svg" viewBox="0 0 750 750"><defs><style>.cls-1{fill:#0077be;}.cls-2{fill:#fff;}</style></defs><title>favicon</title><circle class="cls-1" cx="375" cy="375" r="375"/><path class="cls-2" d="M402.56,151c1.78.72,3.55,1.46,5.33,2.16,16.29,6.34,29.69,16.66,40.87,29.93,4.59,5.44,8.8,11.19,13.08,16.88a4.35,4.35,0,0,0,3,1.86c3.48.59,6.95,1.25,10.43,1.88,0,.14,0,.3-.1.32-9.38,4.11-16.13,11.28-22.15,19.22-11.23,14.82-19.06,31.44-25.34,48.83a231.47,231.47,0,0,0-13,57.31c-1.81,19.48-1.09,38.81,4.53,57.71,6.87,23.13,20.07,41.3,41.72,52.76,1.24.66,2.49,1.28,3.84,2-15,14-25.84,30.95-36.08,48.71-1.24-2.91-2.37-5.59-3.52-8.26-5-11.58-10.54-22.85-17.82-33.2a109.12,109.12,0,0,0-30.84-29.45,2.23,2.23,0,0,0-2.8,0c-17.27,10.9-30.2,25.76-39.56,43.75-4.28,8.23-7.87,16.81-11.78,25.24-.26.58-.5,1.17-.83,1.92-10.17-17.65-21-34.61-36-48.65a7.33,7.33,0,0,1,.94-.63c22.85-11.08,36.93-29.45,44.28-53.37a129.67,129.67,0,0,0,5.49-35.64c.71-35.49-7.51-69-22.41-101.06a141.44,141.44,0,0,0-19.55-31.57c-5.36-6.41-11.29-12.17-19.15-15.52-.09,0-.13-.18-.26-.37,3.39-.62,6.71-1.3,10.06-1.83a5.05,5.05,0,0,0,3.67-2.29,169.92,169.92,0,0,1,21.09-25.35,97.55,97.55,0,0,1,36.82-22.64c.37-.13.76-.21,1.41-.4-.29,5.35,1.62,9.34,6.79,11.44-3.31,2.87-6.5,5.52-9.58,8.3-5.82,5.28-11.23,10.92-15,17.91a28.44,28.44,0,0,0-3.54,12.62c-.17,4.2,1.67,7.24,5,9.51,4.56,3.11,9.74,4.65,15.06,5.73a145.79,145.79,0,0,0,44.8,1.86c7.33-.78,14.57-1.94,21.48-4.66a30,30,0,0,0,3.36-1.55c6.38-3.48,8.22-7.45,6.89-14.59-1.36-7.33-5.15-13.43-10.18-18.64-5.22-5.41-10.95-10.31-16.47-15.44-.3-.27-.63-.52-1.15-1,5.23-2.28,7.26-6.32,6.78-11.75Z" transform="translate(0)"/><path class="cls-2" d="M712,312.17a6.24,6.24,0,0,1-.76-.28c-15.49-7.71-31.88-13-48.45-17.72A597.62,597.62,0,0,0,588.57,278c-16.47-2.53-33-4.51-49.71-4.32-7,.07-14,.44-20.73,2.76a2.44,2.44,0,0,1-1.65-.18c-18.93-8.83-39-13-59.72-14-4.44-.22-8.91,0-13.79,0,1.53-3.41,2.79-6.37,4.18-9.26C453,240.66,460,229.2,469.82,219.65A58,58,0,0,1,488.59,207a4.7,4.7,0,0,1,2.51-.27c21.49,4.24,42.51,10.22,63.35,16.91a633.43,633.43,0,0,1,78.1,30.54c18.63,8.85,36.68,18.72,53.2,31.16,9.11,6.85,17.57,14.41,24.41,23.62.71,1,1.39,1.95,2.08,2.92Z" transform="translate(0)"/><path class="cls-2" d="M38.17,312.26a78.88,78.88,0,0,1,15.15-17.69c13.81-12.47,29.46-22.23,45.79-31,30.36-16.27,62.31-28.73,95-39.41a606,606,0,0,1,58.45-16.12,21.78,21.78,0,0,0,2.93-.63c3.6-1.4,6.76-.41,10,1.31,10.25,5.39,18.16,13.32,24.9,22.54a145.09,145.09,0,0,1,16.12,29.3c.15.36.22.76.46,1.54-4.69,0-9.16-.18-13.61,0-17.86.86-35.25,4.12-51.92,10.75-2.51,1-5,2.16-7.45,3.18a3.2,3.2,0,0,1-2,.27c-6.32-2.18-12.9-2.61-19.49-2.73-15-.25-29.84,1.34-44.66,3.42a601.58,601.58,0,0,0-76.42,16c-17,4.69-33.7,10-49.67,17.46C40.57,311.07,39.37,311.67,38.17,312.26Z" transform="translate(0)"/><path class="cls-2" d="M375,664.28c-.58-4.13-1.15-8.26-1.74-12.38-4.93-34.19-10.47-68.25-20.83-101.31-5.11-16.32-11.48-32.1-20.33-46.8a2.13,2.13,0,0,1-.26-1.58C337,488,342.4,473.9,350.49,461c6.1-9.71,13.42-18.3,22.79-25a2.65,2.65,0,0,1,3.65,0c10.93,7.61,18.88,17.76,25.28,29.27,6.57,11.8,11.27,24.42,16.19,36.95a2.14,2.14,0,0,1-.22,1.61c-15.17,26.29-24,54.86-30,84.38-4,19.71-7,39.6-10.4,59.42-.95,5.57-1.7,11.16-2.54,16.74Z" transform="translate(0)"/><path class="cls-2" d="M486.66,407.73a63.58,63.58,0,1,1,.71-127.16c34.56.28,62.77,28.75,62.74,63.85A63.46,63.46,0,0,1,486.66,407.73Zm-6.35-69.05L478.17,336c-4.41-5.59-9.12-11-13.13-16.83-5.3-7.75-4.91-14.37.46-22.08l1.57-2.28c-22.35,8.63-36.93,32.85-32.89,57.27.72-.28,1.43-.54,2.12-.82,12.41-5,25.23-8.36,38.63-9C477.64,342.06,479.51,341.53,480.31,338.68Zm28.51-42.79c-3.29,15-8.61,29-16.75,41.68,1.05,2.89,3,2.75,5.42,2.34,6.61-1.12,13.24-2.11,19.89-2.86a17.4,17.4,0,0,1,11.37,2.41c4.09,2.55,6.31,6.55,8.11,10.84.58,1.37,1.08,2.78,1.68,4.36C543.53,334.75,533.87,307.12,508.82,295.89Zm8,92-1.4-1.29a121.8,121.8,0,0,1-26.2-32.77c-.87-1.62-2-1.46-3.28-1.47-1.48,0-1,1.3-1.41,2a5.64,5.64,0,0,0-.31,1c-1.88,6.3-3.56,12.67-5.7,18.88-2.73,7.88-8.27,12.38-16.86,12.6-2.12.05-4.25,0-6.41,0C472.15,400.28,498.46,401.16,516.79,387.89Zm-30.27-39.71a4,4,0,0,0,4.15-3.88,4,4,0,1,0-4.15,3.88Z" transform="translate(0)"/><path class="cls-2" d="M263.54,407.73a63.59,63.59,0,1,1,.75-127.17c34.48.3,62.73,28.75,62.71,63.71A63.44,63.44,0,0,1,263.54,407.73Zm19.69-112.82c.82,1.22,1.62,2.35,2.37,3.51,4.19,6.46,4.42,13,.31,19.57a102.12,102.12,0,0,1-6.49,9c-3.12,4-6.4,7.82-9.58,11.67a15.31,15.31,0,0,0,1.29,2.28,2.49,2.49,0,0,0,1.54,1,117.74,117.74,0,0,1,33.64,6.47c3.25,1.09,6.46,2.35,9.7,3.54C320.24,328.08,305.33,302.88,283.23,294.91Zm-25,42.63A91.24,91.24,0,0,1,248,317.49c-2.57-7.07-4.7-14.31-7-21.45-24.91,11.38-34.28,39-29.33,58.45,1.08-2.49,2.07-5.07,3.29-7.52,3.76-7.51,10.05-10.71,18.23-9.9,6.48.65,12.94,1.66,19.36,2.78C255,340.3,257.09,340.47,258.19,337.54Zm37.16,49.15-2.33.18c-11.58.95-17.92-3.11-21.92-14,0,0,0-.11-.05-.16-1.82-6.27-3.62-12.53-5.49-18.78-.18-.58-.8-1.42-1.27-1.46-1-.08-2.21-.56-3,.94a122.48,122.48,0,0,1-24.52,31.47c-1.09,1-2.22,2-3.35,3C251.52,400.89,277.33,400.53,295.35,386.69Zm-27.79-42.55a4,4,0,0,0-4-4,4.15,4.15,0,0,0-4,4.06,4.08,4.08,0,0,0,4.08,4A4,4,0,0,0,267.56,344.14Z" transform="translate(0)"/><path class="cls-2" d="M220.89,284.05c-3.22,2.41-6.2,4.59-9.13,6.85a88.61,88.61,0,0,0-20.88,22.34,3.1,3.1,0,0,1-2.1,1.15c-10,.81-20.1,1.22-30.08,2.38-12.73,1.49-25.42,3.37-38.08,5.44q-28.91,4.73-57.33,11.84C49,337.62,34.86,341.5,21.23,347.12l-1.25.46c1.81-3.89,3.38-7.46,5.13-10.94,1.47-2.94,3.22-5.74,4.7-8.68a11.67,11.67,0,0,1,5.79-5.31c19.09-9.32,39.12-16.08,59.51-21.82a568.3,568.3,0,0,1,70.69-15.08c13.91-2.06,27.89-3.7,42-3.57C212.12,282.23,216.49,282.37,220.89,284.05Z" transform="translate(0)"/><path class="cls-2" d="M529.28,284.07c4.46-1.69,8.83-1.85,13.17-1.88,13.51-.11,26.9,1.43,40.25,3.33A558.58,558.58,0,0,1,640.47,297c23.41,5.9,46.43,13,68.44,23a30.77,30.77,0,0,0,3.2,1.48A16.06,16.06,0,0,1,722,330.6c2.4,5.23,5,10.36,7.56,15.54a11.05,11.05,0,0,1,.44,1.26c-3.84-1.43-7.48-2.87-11.18-4.14a399.08,399.08,0,0,0-51.6-13.73q-28.89-5.75-58-10.5a342.49,342.49,0,0,0-47.75-4.63,2.62,2.62,0,0,1-1.91-.86c-7.15-11.4-17-20.06-27.86-27.71C531,285.32,530.26,284.79,529.28,284.07Z" transform="translate(0)"/></svg>