<svg xmlns="http://www.w3.org/2000/svg" viewBox="0 0 482.15 348.6"><title>logo_black</title><g id="Layer_1" data-name="Layer 1"><path d="M755,338.16c1.21.49,2.41,1,3.62,1.46A68.61,68.61,0,0,1,786.41,360c3.12,3.69,6,7.6,8.89,11.46a2.94,2.94,0,0,0,2,1.27c2.37.4,4.72.84,7.08,1.27,0,.1,0,.2-.06.22-6.37,2.79-11,7.66-15,13.06-7.63,10.06-12.95,21.34-17.22,33.15a157.13,157.13,0,0,0-8.81,38.92c-1.22,13.23-.74,26.36,3.07,39.2,4.67,15.7,13.64,28,28.34,35.83l2.61,1.34c-10.2,9.5-17.55,21-24.5,33.07-.85-2-1.61-3.79-2.39-5.61a123.5,123.5,0,0,0-12.11-22.54,73.9,73.9,0,0,0-20.94-20,1.51,1.51,0,0,0-1.9,0,75.48,75.48,0,0,0-26.87,29.71c-2.9,5.58-5.34,11.42-8,17.14-.19.39-.35.8-.57,1.31-6.91-12-14.27-23.51-24.42-33a4.43,4.43,0,0,1,.64-.42c15.51-7.53,25.08-20,30.07-36.25a88.25,88.25,0,0,0,3.73-24.2c.48-24.1-5.1-46.88-15.22-68.63a96.16,96.16,0,0,0-13.28-21.44c-3.64-4.36-7.67-8.27-13-10.54,0,0-.08-.12-.17-.25,2.3-.43,4.56-.89,6.83-1.24a3.43,3.43,0,0,0,2.49-1.56A115.65,115.65,0,0,1,692,354a66.35,66.35,0,0,1,25-15.38c.25-.09.51-.15,1-.27-.2,3.63,1.1,6.34,4.61,7.77-2.25,1.94-4.42,3.74-6.51,5.63-3.95,3.59-7.62,7.42-10.19,12.17a19.28,19.28,0,0,0-2.41,8.57,7,7,0,0,0,3.41,6.45,27.42,27.42,0,0,0,10.23,3.89,98.91,98.91,0,0,0,30.42,1.27,55.62,55.62,0,0,0,14.59-3.16,20.54,20.54,0,0,0,2.28-1.06c4.34-2.36,5.59-5.06,4.69-9.91a24.71,24.71,0,0,0-6.92-12.66c-3.54-3.67-7.44-7-11.18-10.48-.21-.19-.43-.35-.79-.65,3.55-1.55,4.94-4.29,4.61-8Z" transform="translate(-495.22 -338.16)"/><path d="M965.18,447.62a4.4,4.4,0,0,1-.51-.18c-10.52-5.24-21.66-8.82-32.91-12a407.15,407.15,0,0,0-50.4-11c-11.19-1.71-22.41-3.06-33.76-2.93-4.76.05-9.51.3-14.08,1.87a1.58,1.58,0,0,1-1.12-.12c-12.85-6-26.45-8.85-40.55-9.54-3-.14-6.05,0-9.37,0,1-2.32,1.89-4.33,2.84-6.29,4-8.29,8.75-16.07,15.39-22.56a39.5,39.5,0,0,1,12.75-8.57,3.14,3.14,0,0,1,1.71-.18,384.39,384.39,0,0,1,43,11.48,430.6,430.6,0,0,1,53.05,20.74c12.65,6,24.9,12.72,36.13,21.16a80.51,80.51,0,0,1,16.57,16c.49.66.94,1.33,1.42,2Z" transform="translate(-495.22 -338.16)"/><path d="M507.58,447.68a53.59,53.59,0,0,1,10.28-12c9.38-8.47,20-15.1,31.1-21,20.62-11.05,42.31-19.51,64.51-26.76,13.06-4.27,26.27-8,39.69-11a13,13,0,0,0,2-.42c2.45-.95,4.59-.28,6.81.89,7,3.66,12.34,9,16.91,15.31a98.1,98.1,0,0,1,11,19.9c.1.24.15.51.31,1-3.18,0-6.22-.12-9.24,0a108.72,108.72,0,0,0-35.26,7.3c-1.7.68-3.36,1.47-5.06,2.16a2.08,2.08,0,0,1-1.35.18A42.71,42.71,0,0,0,626,421.45a193.74,193.74,0,0,0-30.33,2.33,408.12,408.12,0,0,0-51.9,10.85c-11.51,3.18-22.89,6.78-33.73,11.86C509.2,446.88,508.39,447.29,507.58,447.68Z" transform="translate(-495.22 -338.16)"/><path d="M736.3,686.74q-.59-4.2-1.18-8.4C731.77,655.12,728,632,721,609.54a145.56,145.56,0,0,0-13.8-31.78,1.45,1.45,0,0,1-.18-1.08c3.55-9.63,7.19-19.23,12.69-28a59.4,59.4,0,0,1,15.47-17,1.81,1.81,0,0,1,2.48,0c7.43,5.17,12.82,12.06,17.17,19.88,4.46,8,7.65,16.58,11,25.09a1.45,1.45,0,0,1-.14,1.09C755.34,595.59,749.33,615,745.29,635c-2.7,13.38-4.76,26.89-7.07,40.35-.64,3.78-1.15,7.58-1.73,11.37Z" transform="translate(-495.22 -338.16)"/><path d="M812.15,512.52a43.18,43.18,0,1,1,43.09-43A43.14,43.14,0,0,1,812.15,512.52Zm-4.31-46.9-1.46-1.83c-3-3.8-6.19-7.45-8.91-11.43-3.6-5.27-3.34-9.76.31-15l1.06-1.55c-15.17,5.86-25.08,22.31-22.33,38.9l1.44-.56A80.59,80.59,0,0,1,804.19,468C806,467.92,807.3,467.56,807.84,465.62Zm19.36-29.05a85.64,85.64,0,0,1-11.37,28.3c.71,2,2,1.87,3.68,1.59,4.48-.76,9-1.43,13.5-1.94a11.8,11.8,0,0,1,7.72,1.64c2.78,1.73,4.29,4.45,5.51,7.36.4.93.73,1.88,1.14,3C850.77,463,844.21,444.19,827.2,436.57ZM832.61,499l-1-.87a82.41,82.41,0,0,1-17.79-22.26c-.59-1.1-1.34-1-2.23-1s-.7.88-1,1.38a5,5,0,0,0-.21.69c-1.28,4.28-2.41,8.6-3.87,12.82-1.85,5.35-5.61,8.41-11.45,8.55-1.44,0-2.89,0-4.35,0C802.3,507.46,820.16,508.06,832.61,499Zm-20.56-27a2.72,2.72,0,0,0,2.82-2.64,2.76,2.76,0,0,0-2.63-2.84,2.79,2.79,0,0,0-2.83,2.66A2.75,2.75,0,0,0,812.05,472.08Z" transform="translate(-495.22 -338.16)"/><path d="M660.62,512.52a43.18,43.18,0,1,1,43.1-43.1A43.06,43.06,0,0,1,660.62,512.52ZM674,435.9c.56.83,1.1,1.6,1.61,2.39,2.84,4.38,3,8.85.21,13.29a69.06,69.06,0,0,1-4.41,6.11c-2.12,2.7-4.35,5.31-6.5,7.92a10.45,10.45,0,0,0,.87,1.55,1.68,1.68,0,0,0,1,.69,79.82,79.82,0,0,1,22.85,4.39c2.21.74,4.39,1.6,6.59,2.4C699.13,458.43,689,441.31,674,435.9Zm-17,29a61.45,61.45,0,0,1-6.94-13.61c-1.75-4.8-3.2-9.72-4.77-14.57-16.91,7.72-23.28,26.51-19.92,39.69.74-1.69,1.41-3.44,2.24-5.1,2.55-5.1,6.82-7.28,12.38-6.73,4.4.44,8.78,1.13,13.14,1.89C654.86,466.73,656.25,466.84,657,464.85Zm25.23,33.38-1.58.12c-7.87.65-12.17-2.11-14.89-9.52l0-.12c-1.24-4.25-2.46-8.51-3.73-12.75-.12-.39-.54-1-.86-1-.7-.05-1.5-.38-2,.64A83.08,83.08,0,0,1,642.44,497c-.74.7-1.51,1.38-2.28,2.07A35.8,35.8,0,0,0,682.23,498.23Zm-18.87-28.9a2.76,2.76,0,0,0-2.74-2.73,2.82,2.82,0,0,0-2.74,2.76,2.77,2.77,0,0,0,2.77,2.72A2.71,2.71,0,0,0,663.36,469.33Z" transform="translate(-495.22 -338.16)"/><path d="M631.66,428.52c-2.18,1.64-4.21,3.12-6.2,4.66a60.21,60.21,0,0,0-14.18,15.17,2.11,2.11,0,0,1-1.43.78c-6.8.55-13.64.83-20.42,1.62-8.65,1-17.27,2.29-25.86,3.69q-19.64,3.21-38.94,8a205.62,205.62,0,0,0-28.56,8.88l-.85.31c1.23-2.64,2.3-5.06,3.48-7.43,1-2,2.2-3.9,3.2-5.89a7.9,7.9,0,0,1,3.93-3.61c13-6.33,26.56-10.92,40.42-14.82a385.15,385.15,0,0,1,48-10.24,182.86,182.86,0,0,1,28.52-2.42A25,25,0,0,1,631.66,428.52Z" transform="translate(-495.22 -338.16)"/><path d="M841.09,428.54a25.06,25.06,0,0,1,8.95-1.28,184.1,184.1,0,0,1,27.33,2.27,379.55,379.55,0,0,1,39.24,7.76c15.89,4,31.52,8.81,46.47,15.63a23.6,23.6,0,0,0,2.17,1,10.88,10.88,0,0,1,6.69,6.21c1.63,3.55,3.42,7,5.13,10.55a6.94,6.94,0,0,1,.3.86c-2.61-1-5.08-1.95-7.59-2.81a270.84,270.84,0,0,0-35-9.33q-19.62-3.9-39.38-7.13a233.18,233.18,0,0,0-32.43-3.14,1.77,1.77,0,0,1-1.29-.59c-4.86-7.74-11.55-13.62-18.92-18.82C842.23,429.39,841.76,429,841.09,428.54Z" transform="translate(-495.22 -338.16)"/></g></svg>